{"title":"Mary.Kom.2014.BRRip.480p.x264.Hindi.ESubs-ViZNU [P2PDL]","uid":11281218,"size":538982000,"categoryP":"video","categoryS":"movies","magnet":"?xt=urn:btih:dfb3655f7322b293db68dacbdfbcb1666610565f&amp;dn=Mary.Kom.2014.BRRip.480p.x264.Hindi.ESubs-ViZNU+%5BP2PDL%5D&amp;tr=udp%3A%2F%2Ftracker.openbittorrent.com%3A80&amp;tr=udp%3A%2F%2Fopen.demonii.com%3A1337&amp;tr=udp%3A%2F%2Ftracker.coppersurfer.tk%3A6969&amp;tr=udp%3A%2F%2Fexodus.desync.com%3A6969","seeders":2,"leechers":1,"uploader":"ValidusVyto","files":-1,"time":1414217477,"description":"Mary.Kom.2014.BRRip.480p.x264.Hindi.ESubs-ViZNU\n\n\nGenre: Biography | Drama | Sport\nIMDb: http://www.imdb.com/title/tt3001638/\n\n\nFormat                         : MPEG-4\nFile size                      : 506 MiB\nDuration                       : 2h 1mn\nOverall bit rate               : 584 Kbps\n\nVideo\nFormat                         : AVC\nBit rate                       : 540 Kbps\nWidth                          : 720 pixels\nHeight                         : 320 pixels\nDisplay aspect ratio           : 2.35:1\nFrame rate mode                : Constant\nFrame rate                     : 24.000 fps\nBit depth                      : 8 bits\nStream size                    : 467 MiB (92%)\nWriting library                : x264 core 142 r2479 dd79a61\n\nAudio\nFormat                         : AAC\nBit rate                       : 40.0 Kbps\nChannel(s)                     : 2 channels\nChannel positions              : Front: L R\nSampling rate                  : 48.0 KHz\nStream size                    : 34.7 MiB (7%)\nLanguage                       : Hindi\n\nSubtitle                       : Yes(English)\n\nSource                         : 720p.BluRay.DD5.1.x264-D3Si MaNiaCs(ThankS!)\n\n &lt;a href=&quot;\nhttp://someimage.com/l41tO9q&quot; rel=&quot;nofollow&quot; target=&quot;_NEW&quot;&gt;\nhttp://someimage.com/l41tO9q&lt;/a&gt; &lt;a href=&quot;\nhttp://someimage.com/ZIaMk69&quot; rel=&quot;nofollow&quot; target=&quot;_NEW&quot;&gt;\nhttp://someimage.com/ZIaMk69&lt;/a&gt; &lt;a href=&quot;\nhttp://someimage.com/u2WVYxs&quot; rel=&quot;nofollow&quot; target=&quot;_NEW&quot;&gt;\nhttp://someimage.com/u2WVYxs&lt;/a&gt; &lt;a href=&quot;\nhttp://someimage.com/uNwVNL2&quot; rel=&quot;nofollow&quot; target=&quot;_NEW&quot;&gt;\nhttp://someimage.com/uNwVNL2&lt;/a&gt; &lt;a href=&quot;\nhttp://someimage.com/jPQ6Qt9&quot; rel=&quot;nofollow&quot; target=&quot;_NEW&quot;&gt;\nhttp://someimage.com/jPQ6Qt9&lt;/a&gt; &lt;a href=&quot;\nhttp://someimage.com/zj4MVR0&quot; rel=&quot;nofollow&quot; target=&quot;_NEW&quot;&gt;\nhttp://someimage.com/zj4MVR0&lt;/a&gt; &lt;a href=&quot;\nhttp://someimage.com/YEzi6jC&quot; rel=&quot;nofollow&quot; target=&quot;_NEW&quot;&gt;\nhttp://someimage.com/YEzi6jC&lt;/a&gt; &lt;a href=&quot;\nhttp://someimage.com/1noSLzQ&quot; rel=&quot;nofollow&quot; target=&quot;_NEW&quot;&gt;\nhttp://someimage.com/1noSLzQ&lt;/a&gt; &lt;a href=&quot;\nhttp://someimage.com/AnTD3dj&quot; rel=&quot;nofollow&quot; target=&quot;_NEW&quot;&gt;\nhttp://someimage.com/AnTD3dj&lt;/a&gt; &lt;a href=&quot;\nhttp://someimage.com/TVk1YCG&quot; rel=&quot;nofollow&quot; target=&quot;_NEW&quot;&gt;\nhttp://someimage.com/TVk1YCG&lt;/a&gt; &lt;a href=&quot;\nhttp://someimage.com/ho6ykoS&quot; rel=&quot;nofollow&quot; target=&quot;_NEW&quot;&gt;\nhttp://someimage.com/ho6ykoS&lt;/a&gt; &lt;a href=&quot;\nhttp://someimage.com/6ohioJB&quot; rel=&quot;nofollow&quot; target=&quot;_NEW&quot;&gt;\nhttp://someimage.com/6ohioJB&lt;/a&gt;\n\n\n----------------------------------------------------------------------------------------------------\n\n\nEncoded using revolutionary 10bit encoding, which enables us to provide you more crispier \nand sharper images at small sizes, just make sure you follow our instructions without a fault.\nRecommend to you to use latest version of VLC player. Install K-Lite Codec Pack or shark007 codecs\nin case of any kind of problem in playback (For non-VLC Media Player users). Alternatively, install\nCore AVC codecs, the fastest decoder that there is coupled with Community Center Codec Pack and play\non Windows Media Player Classic. Check sample to be sure.\nEnjoy!\n\nEncoder Notes:Looking For Early Access To Anything You Can Provide DVDScr, R5, DVDR, BluRay, Direct\nAudio, Music Releases and Seedboxes. We require dedicated servers, so as to do more \nand fast releases of movies.\n\nFind us! Support us!","torrent":{"xt":"urn:btih:dfb3655f7322b293db68dacbdfbcb1666610565f","amp;dn":"Mary.Kom.2014.BRRip.480p.x264.Hindi.ESubs-ViZNU+%5BP2PDL%5D","amp;tr":["udp%3A%2F%2Ftracker.openbittorrent.com%3A80","udp%3A%2F%2Fopen.demonii.com%3A1337","udp%3A%2F%2Ftracker.coppersurfer.tk%3A6969","udp%3A%2F%2Fexodus.desync.com%3A6969"],"infoHash":"dfb3655f7322b293db68dacbdfbcb1666610565f","infoHashBuffer":{"type":"Buffer","data":[223,179,101,95,115,34,178,147,219,104,218,203,223,188,177,102,102,16,86,95]},"announce":[],"urlList":[]}}